<svg width="22" height="23" viewBox="0 0 22 23" fill="none" xmlns="http://www.w3.org/2000/svg">
<path d="M21 9.7168V19.9365C21 20.2203 20.9022 20.493 20.7266 20.709L20.6465 20.7979C20.4209 21.025 20.1158 21.1514 19.7998 21.1514H19.7822L15 21.2354V15.6064C14.9999 14.7562 14.6646 13.9393 14.0654 13.3359C13.8589 13.128 13.5944 12.9642 13.3682 12.8428C13.1268 12.7133 12.8583 12.5946 12.5938 12.4951C12.1032 12.3107 11.4785 12.1338 11 12.1338C10.5215 12.1338 9.89678 12.3107 9.40625 12.4951C9.14173 12.5946 8.8732 12.7133 8.63184 12.8428C8.40561 12.9642 8.14111 13.128 7.93457 13.3359C7.33544 13.9393 7.00009 14.7562 7 15.6064V21.2354L2.21777 21.1514H2.2002C1.92384 21.1514 1.65604 21.055 1.44238 20.8789L1.35352 20.7979C1.12792 20.5705 1.00003 20.2608 1 19.9365V9.7168L11 1.08691L21 9.7168Z" stroke="black" stroke-width="2"/>
</svg>
